<svg width="40" height="38" viewBox="0 0 40 38" fill="none" xmlns="http://www.w3.org/2000/svg">
<path fill-rule="evenodd" clip-rule="evenodd" d="M10.1701 1.72364C9.43301 0.0848625 8.65669 0.0519351 7.95509 0.0234401C7.38139 -0.00125536 6.72475 1.09561e-05 6.06937 1.09561e-05C5.41336 1.09561e-05 4.34702 0.246967 3.44533 1.23162C2.54299 2.21628 0 4.59719 0 9.43942C0 14.2823 3.52701 18.9612 4.01902 19.6184C4.51103 20.2751 10.8274 30.5295 20.8303 34.4744C29.1437 37.7532 30.8351 37.101 32.6397 36.937C34.4444 36.773 38.4621 34.5561 39.2822 32.2581C40.1028 29.9602 40.1028 27.9909 39.8565 27.5786C39.6102 27.169 38.9542 26.9226 37.9701 26.4306C36.9861 25.9386 32.1477 23.5571 31.2454 23.2291C30.3431 22.9004 29.687 22.737 29.031 23.7223C28.3744 24.7064 26.4899 26.9226 25.9156 27.5786C25.3413 28.2366 24.767 28.3189 23.7829 27.8262C22.7989 27.333 19.629 26.2945 15.869 22.9416C12.9436 20.3333 10.9679 17.1115 10.3936 16.1262C9.81991 15.1422 10.3841 14.6559 10.8261 14.1183C11.622 13.1501 12.9575 11.4094 13.2855 10.7534C13.6135 10.0961 13.4495 9.52174 13.2038 9.0291C12.9575 8.53709 11.0445 3.67016 10.1701 1.72364Z" fill="#00A84F"/>
</svg>
