<svg width="50" height="50" viewBox="0 0 50 50" fill="none" xmlns="http://www.w3.org/2000/svg">
    <path d="M1.06389 50C0.783131 50 0.509999 49.889 0.307439 49.6841C0.0404107 49.4141 -0.0625859 49.0219 0.0377405 48.6553L3.28824 36.7855C1.26455 33.1261 0.197576 28.9864 0.199102 24.7841C0.204824 11.1179 11.3262 0 24.9912 0C31.6192 0.00267029 37.8471 2.58446 42.5281 7.26891C47.2083 11.9537 49.7847 18.1812 49.7828 24.8039C49.7767 38.4705 38.6554 49.5892 24.9912 49.5892C24.9912 49.5892 24.9809 49.5892 24.9805 49.5892C20.9892 49.5876 17.0322 48.6149 13.5089 46.7724L1.33359 49.9653C1.24433 49.9886 1.15354 50 1.06389 50Z" fill="#E5E5E5"/>
    <path d="M1.06384 48.936L4.42994 36.6439C2.35359 33.0463 1.26144 28.9654 1.26297 24.7845C1.26831 11.705 11.9121 1.06396 24.9912 1.06396C31.3381 1.06664 37.2955 3.53703 41.7755 8.02081C46.2551 12.5046 48.7213 18.4647 48.719 24.8035C48.7133 37.8826 38.068 48.5252 24.9912 48.5252C24.9904 48.5252 24.9916 48.5252 24.9912 48.5252H24.9809C21.0098 48.5236 17.1081 47.5276 13.6424 45.6374L1.06384 48.936ZM14.2249 41.3433L14.9455 41.7701C17.9729 43.5668 21.4439 44.5171 24.9836 44.519H24.9912C35.8608 44.519 44.7079 35.6735 44.7124 24.802C44.7143 19.5335 42.6651 14.5794 38.9416 10.8528C35.2176 7.12627 30.2665 5.07282 24.9984 5.07053C14.12 5.07053 5.27337 13.9149 5.26917 24.786C5.26764 28.5114 6.30982 32.1392 8.28431 35.2787L8.75352 36.0248L6.76072 43.3002L14.2249 41.3433Z" fill="white"/>
    <path d="M1.88898 48.1079L5.13871 36.2407C3.13371 32.7678 2.07971 28.8276 2.08086 24.7921C2.08582 12.1654 12.3615 1.89282 24.9869 1.89282C31.1149 1.89549 36.8663 4.28044 41.1902 8.60898C45.5153 12.9375 47.8957 18.6912 47.8934 24.81C47.8881 37.437 37.6121 47.7108 24.9881 47.7108C24.9869 47.7108 24.9885 47.7108 24.9881 47.7108H24.9778C21.1444 47.7092 17.3774 46.7472 14.0319 44.9238L1.88898 48.1079Z" fill="#64B161"/>
    <path d="M1.06384 48.936L4.42994 36.6439C2.35359 33.0463 1.26144 28.9654 1.26297 24.7845C1.26831 11.705 11.9121 1.06396 24.9912 1.06396C31.3381 1.06664 37.2955 3.53703 41.7755 8.02081C46.2551 12.5046 48.7213 18.4647 48.719 24.8035C48.7133 37.8826 38.068 48.5252 24.9912 48.5252C24.9904 48.5252 24.9916 48.5252 24.9912 48.5252H24.9809C21.0098 48.5236 17.1081 47.5276 13.6424 45.6374L1.06384 48.936ZM14.2249 41.3433L14.9455 41.7701C17.9729 43.5668 21.4439 44.5171 24.9836 44.519H24.9912C35.8608 44.519 44.7079 35.6735 44.7124 24.802C44.7143 19.5335 42.6651 14.5794 38.9416 10.8528C35.2176 7.12627 30.2665 5.07282 24.9984 5.07053C14.12 5.07053 5.27337 13.9149 5.26917 24.786C5.26764 28.5114 6.30982 32.1392 8.28431 35.2787L8.75352 36.0248L6.76072 43.3002L14.2249 41.3433Z" fill="white"/>
    <path fill-rule="evenodd" clip-rule="evenodd" d="M19.0608 14.8678C18.6168 13.8806 18.1491 13.8608 17.7264 13.8436C17.3808 13.8287 16.9852 13.8295 16.5904 13.8295C16.1952 13.8295 15.5528 13.9782 15.0096 14.5714C14.466 15.1646 12.934 16.599 12.934 19.5161C12.934 22.4336 15.0588 25.2523 15.3552 25.6482C15.6516 26.0438 19.4568 32.2214 25.4828 34.5979C30.4911 36.5732 31.51 36.1803 32.5972 36.0815C33.6844 35.9827 36.1048 34.6471 36.5988 33.2628C37.0932 31.8784 37.0932 30.692 36.9448 30.4437C36.7964 30.1969 36.4012 30.0485 35.8084 29.7521C35.2156 29.4557 32.3008 28.021 31.7572 27.8234C31.2136 27.6254 30.8184 27.527 30.4232 28.1205C30.0276 28.7134 28.8924 30.0485 28.5464 30.4437C28.2004 30.8401 27.8544 30.8896 27.2616 30.5929C26.6688 30.2957 24.7592 29.6701 22.494 27.6502C20.7316 26.0789 19.5414 24.138 19.1955 23.5444C18.8498 22.9516 19.1897 22.6586 19.456 22.3348C19.9355 21.7515 20.74 20.7028 20.9376 20.3076C21.1352 19.9117 21.0364 19.5657 20.8884 19.2689C20.74 18.9725 19.5876 16.0405 19.0608 14.8678Z" fill="white"/>
</svg>
